<?xml version="1.0" encoding="UTF-8" standalone="no"?>
<svg
   version="1.1"
   width="163"
   height="154"
   id="svg83"
   xmlns="http://www.w3.org/2000/svg"
   xmlns:svg="http://www.w3.org/2000/svg">
  <defs
     id="defs83" />
  <path
     d="M0 0 C53.79 0 107.58 0 163 0 C163 50.82 163 101.64 163 154 C109.21 154 55.42 154 0 154 C0 103.18 0 52.36 0 0 Z "
     fill="#26728E"
     transform="translate(0,0)"
     id="path1" />
  <path
     d="M 0,0 H 163 V 154 H 0 Z m 58.375,15.5 -2.355087,0.03624 C 46.346522,15.685558 36.673225,15.840258 27,16 c -0.638184,2.368103 -1.274646,4.736648 -1.910156,7.105469 l -0.541626,2.00769 c -2.332899,8.708954 -4.131513,17.496707 -5.704468,26.371216 l -0.638916,3.522217 c -0.42228,2.337706 -0.832004,4.677722 -1.228027,7.020019 C 15.182388,71.899942 15.182388,71.899942 11,76 7.8675864,80.230513 7.8675864,80.230513 7.3945312,85.214844 L 8,87 c 1.0057859,-1.287166 2.004468,-2.579887 3,-3.875 l 1.6875,-2.179688 C 14.186434,79.114791 14.186434,79.114791 14,77 h 2 l 0.363281,3.03125 c 0.565672,3.940943 1.64043,7.674721 2.824219,11.46875 2.453852,8.073847 4.600765,16.21197 6.668701,24.39258 C 27.336736,121.68716 29.019425,127.35615 31,133 c 36.698268,0.35079 73.3529,-1.24186 110,-3 l -1,4 c -1.47831,0.19412 -2.95769,0.38012 -4.4375,0.5625 l -2.49609,0.31641 L 131,135 l -1,-1 c -6.67353,-1.34232 -13.40398,-1.19182 -20.1875,-1.1875 l -1.99606,-1.8e-4 c -14.801042,0.0187 -29.589053,0.52891 -44.37894,1.06268 l -3.508392,0.1188 c -3.332276,0.11491 -6.663845,0.24218 -9.995514,0.37339 l -3.029877,0.10133 C 41.631577,134.69257 36.958679,135.13056 32,137 l -1,2 c 5.888192,2.53227 10.500695,3.42148 16.875,3.29297 l 2.454346,-0.0129 c 2.55724,-0.0166 5.113657,-0.0543 7.670654,-0.0926 1.746082,-0.0151 3.492177,-0.0288 5.238281,-0.041 C 67.492499,142.11362 71.74611,142.06194 76,142 v -3 h 29 v 4 h 13 l 1,-3 3.35938,0.14062 c 1.46351,0.0375 2.92705,0.0739 4.39062,0.10938 l 2.21094,0.10156 c 3.56617,0.0648 5.54877,0.0466 8.36718,-2.24219 L 139,136 l 3,-2 c 0.28968,-2.05448 0.28968,-2.05448 0.0623,-4.41382 -0.17203,-5.87128 0.78454,-11.22606 1.94165,-16.96509 0.41488,-2.15947 0.82959,-4.31897 1.24414,-6.47851 0.65649,-3.36015 1.31728,-6.719388 1.98217,-10.077883 0.64404,-3.270814 1.27204,-6.544418 1.89869,-9.818603 l 0.61219,-3.0121 c 1.70946,-8.990608 0.67564,-16.460019 -1.66688,-25.20665 l -0.57231,-2.200547 c -0.59893,-2.298017 -1.20634,-4.593683 -1.81441,-6.889297 -0.59308,-2.262166 -1.18437,-4.524796 -1.7756,-6.787445 -0.38995,-1.491436 -0.78067,-2.98267 -1.17218,-4.473694 C 140.76212,30.13358 138.87347,22.569215 137,15 c -26.21348,-0.149831 -52.41511,0.0966 -78.625,0.5 z"
     fill="#3081A9"
     id="path2"
     style="fill:#ffffff" />
  <path
     d="M0 0 C10.41994766 8.18710173 16.74169989 18.37394475 19.1875 31.375 C20.70076086 46.50429734 18.46444633 59.073515 9.1875 71.375 C8.589375 72.261875 7.99125 73.14875 7.375 74.0625 C-0.04016535 81.90138908 -10.78409291 86.65480466 -21.46875 87.61328125 C-35.95292441 87.99130229 -46.61928207 83.0220034 -57.09765625 73.2421875 C-65.75777724 64.20976225 -70.22077652 52.52330743 -70.125 40.0625 C-70.12081055 39.31556885 -70.11662109 38.5686377 -70.11230469 37.79907227 C-69.99248106 31.91942901 -69.11873236 26.81971379 -66.8125 21.375 C-66.55726562 20.70597656 -66.30203125 20.03695312 -66.0390625 19.34765625 C-61.36276751 8.51495456 -51.39999 -0.45854705 -40.625 -4.9375 C-26.84247594 -10.21449225 -12.17396147 -8.30654277 0 0 Z "
     fill="#0E232A"
     transform="translate(108.8125,33.625)"
     id="path3" />
  <path
     d="M 0,0 H 3 C 2.3277567,6.3058482 1.5291862,12.579011 0.625,18.855469 l -0.39208984,2.74324 c -0.27163232,1.898426 -0.54393918,3.796756 -0.81689454,5.694992 C -1.000318,30.189712 -1.414391,33.086039 -1.828125,35.982422 -2.0936176,37.835956 -2.3592382,39.689473 -2.625,41.542969 l -0.3725586,2.604538 -0.3540039,2.458694 -0.3071289,2.138352 C -4.0758252,51.50107 -4.5416719,54.250032 -5,57 l 17,1 v 22 c -20.17494,0.04625 -40.349865,0.08196 -60.524847,0.103624 -9.367062,0.01032 -18.73409,0.02441 -28.10113,0.04726 -8.161913,0.0199 -16.323801,0.03283 -24.485733,0.0373 -4.32385,0.0026 -8.64763,0.0088 -12.97146,0.02328 -4.06616,0.01353 -8.13221,0.01777 -12.19839,0.01475 -1.49562,5.53e-4 -2.99124,0.0046 -4.48684,0.0122 -2.03554,0.0099 -4.07113,0.0064 -6.10669,0.0021 l -3.45812,0.0056 C -143,80 -143,80 -145,78 c -0.19531,-3.039063 -0.19531,-3.039063 -0.125,-6.625 l 0.0547,-3.601563 L -145,65 l 1.82007,-0.534912 c 2.7068,-0.797538 5.41212,-1.599995 8.11743,-2.402588 l 2.86523,-0.841797 2.72461,-0.810547 2.5232,-0.745849 C -125.01961,59.166693 -125.01961,59.166693 -124,58 l -2,-1 v -2 l -1.75,-0.6875 c -9.75474,-5.690266 -12.86529,-21.674229 -15.58594,-31.9375 -0.91969,-4.674215 -1.47073,-7.843624 0.79688,-12.148437 L -140.625,7.625 -138.72656,4.9765625 -137,3 h 2 c 3.60376,12.102012 7.12883,24.217318 10.3125,36.4375 l 0.73291,2.808838 c 1.43401,5.56172 2.72296,11.143978 3.95459,16.753662 8.12961,-0.241123 16.25914,-0.484482 24.388599,-0.730491 3.777175,-0.114236 7.554368,-0.227778 11.331616,-0.339577 4.369369,-0.129445 8.738671,-0.261005 13.10791,-0.394776 l 2.16053,-0.06608 c 9.217314,-0.284875 18.4245,-0.658933 27.632561,-1.160814 6.711868,-0.35477 13.407714,-0.42571 20.128784,-0.370758 l 3.339844,0.01367 c 2.636785,0.01146 5.273434,0.02767 7.910156,0.04883 -0.78125,3.84375 -0.78125,3.84375 -2.75,5.25 -2.562125,0.854042 -4.565767,0.967641 -7.25,0.75 l -1,-1 c -6.673527,-1.342321 -13.403984,-1.191822 -20.1875,-1.1875 l -1.996063,-1.83e-4 C -57.984602,59.831064 -72.772613,60.34123 -87.5625,60.875 l -3.508392,0.118805 c -3.332276,0.114908 -6.663845,0.242177 -9.995518,0.373382 l -3.02987,0.101334 C -109.39182,61.693562 -113.97671,62.287109 -119,64 c 5.44214,2.706887 9.73825,3.46181 15.77734,3.511719 l 2.45864,0.0544 c 2.56712,0.05377 5.134061,0.08789 7.70152,0.121384 1.750676,0.0332 3.501329,0.0677 5.251953,0.103516 C -83.540497,67.875591 -79.270498,67.942561 -75,68 v -3 h 29 v 4 c 2.146475,-0.113444 4.292206,-0.241063 6.4375,-0.375 L -35.941406,68.414062 -33,68 l 1,-2 c 3.347588,-0.264781 6.653617,-0.366759 10.009766,-0.390625 3.586659,-0.118133 5.5679,-0.259619 8.376953,-2.585938 L -12,61 l 2,-1 -0.06798,-1.777573 c -0.144949,-6.836453 0.7247388,-13.179219 2.0015717,-19.882583 l 0.5981598,-3.245713 c 0.4153027,-2.243667 0.834872,-4.486548 1.2585297,-6.728652 0.6509044,-3.44751 1.2877927,-6.897396 1.9226074,-10.347901 0.406091,-2.184395 0.8129637,-4.368646 1.2207031,-6.552734 l 0.5809174,-3.1372225 0.5457916,-2.8747406 0.477768,-2.5396882 C -1,1 -1,1 0,0 Z"
     fill="#d4d7d8"
     transform="translate(151,74)"
     id="path4"
     style="fill:#ffffff" />
  <path
     d="M0 0 C1.95463193 7.81278257 3.907987 15.62586406 5.8515625 23.44140625 C6.14546875 24.62154297 6.439375 25.80167969 6.7421875 27.01757812 C7.33942932 29.41579474 7.93575808 31.8142389 8.53125 34.21289062 C10.27065347 41.23065968 10.27065347 41.23065968 12.234375 48.1875 C12.99865222 50.99504897 13.06854978 52.32862555 12 55 C11.34 54.67 10.68 54.34 10 54 C9.26924352 51.6859378 8.59861742 49.35171131 8 47 C7.34 47 6.68 47 6 47 C5.84442627 46.46221924 5.68885254 45.92443848 5.52856445 45.37036133 C2.43016993 34.7130212 -0.8329793 24.29499233 -5 14 C-11.27 13.67 -17.54 13.34 -24 13 C-24 13.66 -24 14.32 -24 15 C-28.3736831 16.55195207 -31.28242092 15.45675362 -35.42578125 13.88671875 C-43.99295018 10.93566056 -51.7658875 10.73479521 -60.78125 10.8046875 C-62.20470988 10.80842394 -63.62817236 10.81126793 -65.05163574 10.81326294 C-68.77359284 10.82084975 -72.49539047 10.84045481 -76.21728516 10.8626709 C-80.02504317 10.88323686 -83.83282729 10.8922875 -87.640625 10.90234375 C-95.0938222 10.92370611 -102.54688864 10.95778115 -110 11 C-110.33 11.99 -110.66 12.98 -111 14 C-111.33 14 -111.66 14 -112 14 C-111.85851011 12.3954444 -111.71164314 10.79136233 -111.5625 9.1875 C-111.48128906 8.29417969 -111.40007812 7.40085937 -111.31640625 6.48046875 C-111 4 -111 4 -110 1 C-99.54175959 0.82729486 -89.08342812 0.66091531 -78.625 0.5 C-77.85329971 0.48812275 -77.08159943 0.4762455 -76.28651428 0.46400833 C-50.85626276 0.07463923 -25.43360093 -0.1453732 0 0 Z "
     fill="#032738"
     transform="translate(137,15)"
     id="path5" />
  <path
     d="M0 0 C5.13651103 0.01039446 10.27302729 0.01483148 15.4095459 0.01983643 C25.41346547 0.03042865 35.41736244 0.04740099 45.42126465 0.06866455 C45.90433931 1.32361069 46.38422107 2.57978614 46.86279297 3.8364563 C47.13037666 4.53585264 47.39796036 5.23524899 47.67365265 5.95583916 C48.78908911 9.10817283 49.46431429 12.30455391 50.14001465 15.57647705 C50.2840271 16.26442352 50.42803955 16.95237 50.57641602 17.66116333 C51.03065986 19.83747652 51.47620738 22.01545626 51.92126465 24.19366455 C52.21884777 25.62868368 52.51702122 27.06358053 52.8157959 28.49835205 C53.25789161 30.62248381 53.69897909 32.74678846 54.1361084 34.87194824 C54.84111339 38.2983326 55.55872197 41.72099581 56.3079834 45.13800049 C56.71983887 47.01793701 56.71983887 47.01793701 57.14001465 48.93585205 C57.38687012 50.04815186 57.63372559 51.16045166 57.88806152 52.30645752 C58.42126465 55.06866455 58.42126465 55.06866455 58.42126465 58.06866455 C57.10126465 58.06866455 55.78126465 58.06866455 54.42126465 58.06866455 C51.07535824 45.5417805 51.07535824 45.5417805 49.63415527 40.12359619 C49.26763701 38.7459058 48.90110059 37.36822025 48.5345459 35.99053955 C48.26204514 34.96627113 48.26204514 34.96627113 47.98403931 33.92131042 C46.9266731 29.95154801 45.85748938 25.9852425 44.7767334 22.02178955 C44.54365479 21.15916504 44.31057617 20.29654053 44.07043457 19.40777588 C43.64978395 17.85157426 43.22445567 16.29662647 42.7935791 14.7432251 C41.80739822 11.07074426 41.33670765 7.85787509 41.42126465 4.06866455 C40.50506348 4.09895752 39.5888623 4.12925049 38.64489746 4.16046143 C13.36080446 4.97159462 -11.90907025 5.15922297 -37.20373535 5.13116455 C-37.98091415 5.13030853 -38.75809296 5.12945251 -39.55882263 5.12857056 C-49.23215073 5.11712901 -58.90544148 5.09697907 -68.57873535 5.06866455 C-68.70389526 5.76805649 -68.82905518 6.46744843 -68.95800781 7.18803406 C-69.98416245 12.88337997 -71.05517598 18.56341204 -72.23498535 24.2288208 C-72.38278442 24.94420517 -72.5305835 25.65958954 -72.68286133 26.39665222 C-73.14692505 28.64174584 -73.61274095 30.88647096 -74.07873535 33.13116455 C-74.54326638 35.37413738 -75.0074212 37.61718711 -75.47109985 39.8603363 C-75.76904092 41.29991477 -76.06791104 42.7393013 -76.36776733 44.17848206 C-77.33778204 48.84569074 -78.24678375 53.52083872 -79.08117676 58.21417236 C-79.8580545 61.10973828 -81.57783041 62.89120918 -83.57873535 65.06866455 C-84.99995423 67.36001743 -86.28039344 69.70382749 -87.57873535 72.06866455 C-88.86075982 68.40857574 -88.30978937 65.72256252 -87.5045166 61.97491455 C-87.2486377 60.77866455 -86.99275879 59.58241455 -86.72912598 58.34991455 C-86.45262207 57.10210205 -86.17611816 55.85428955 -85.89123535 54.56866455 C-85.63406738 53.35178955 -85.37689941 52.13491455 -85.11193848 50.88116455 C-82.96373487 41.00048361 -79.96911064 31.56198256 -76.35998535 22.1272583 C-75.08114082 18.75750296 -73.86638203 15.36448703 -72.64123535 11.97491455 C-71.7758579 9.60785269 -70.89817181 7.24645511 -70.0123291 4.88702393 C-69.743479 4.17074829 -69.47462891 3.45447266 -69.19763184 2.7164917 C-68.993396 2.17270874 -68.78916016 1.62892578 -68.57873535 1.06866455 C-45.72637307 -0.17937987 -22.87791855 -0.05132896 0 0 Z "
     fill="#899596"
     transform="translate(95.5787353515625,10.93133544921875)"
     id="path6" />
  <path
     d="M0 0 C0.33 0 0.66 0 1 0 C0.93941406 0.65484375 0.87882812 1.3096875 0.81640625 1.984375 C0.54053427 4.98925745 0.26925631 7.99451739 0 11 C-0.09539062 12.06476563 -0.19078125 13.12953125 -0.2890625 14.2265625 C-0.37929687 15.26554687 -0.46953125 16.30453125 -0.5625 17.375 C-0.68818359 18.80972656 -0.68818359 18.80972656 -0.81640625 20.2734375 C-1.05085828 23.00272575 -1.05085828 23.00272575 -0.87890625 25.75 C-0.91886719 26.4925 -0.95882812 27.235 -1 28 C-3.375 29.625 -3.375 29.625 -6 31 C-6.66 31.99 -7.32 32.98 -8 34 C-10.7885289 34.22107787 -13.34653181 34.28107535 -16.125 34.1875 C-17.25615234 34.16719727 -17.25615234 34.16719727 -18.41015625 34.14648438 C-20.27374127 34.11109985 -22.13695978 34.05729167 -24 34 C-24.33 34.99 -24.66 35.98 -25 37 C-29.29 37 -33.58 37 -38 37 C-38 35.68 -38 34.36 -38 33 C-47.57 33 -57.14 33 -67 33 C-67 33.99 -67 34.98 -67 36 C-72.12285234 36.0745935 -77.24538304 36.12881017 -82.36865234 36.16479492 C-84.10861728 36.17980854 -85.84854484 36.20022577 -87.58837891 36.22631836 C-90.1006802 36.26303107 -92.6124778 36.27980069 -95.125 36.29296875 C-95.89303955 36.30845261 -96.6610791 36.32393646 -97.45239258 36.33988953 C-102.92795552 36.34156581 -106.96684472 35.16455636 -112 33 C-109.58210739 30.07307737 -107.72748359 29.47199115 -104 29 C-102.3914227 28.86628556 -100.77953073 28.76870243 -99.16674805 28.70288086 C-97.75903137 28.64295456 -97.75903137 28.64295456 -96.32287598 28.58181763 C-95.31269409 28.54321625 -94.30251221 28.50461487 -93.26171875 28.46484375 C-91.66922302 28.4001741 -91.66922302 28.4001741 -90.04455566 28.334198 C-86.59239051 28.19653979 -83.14001024 28.06619664 -79.6875 27.9375 C-78.5180484 27.89297699 -77.3485968 27.84845398 -76.14370728 27.80258179 C-61.8260894 27.26332176 -47.51633295 26.80394757 -33.1875 26.8125 C-31.92317139 26.8117749 -30.65884277 26.8110498 -29.35620117 26.81030273 C-14.09497314 26.90502686 -14.09497314 26.90502686 -12 29 C-10.47480724 28.91062197 -8.95318071 28.75462854 -7.4375 28.5625 C-6.19806641 28.40974609 -6.19806641 28.40974609 -4.93359375 28.25390625 C-4.29550781 28.17011719 -3.65742188 28.08632812 -3 28 C-2.67 26.68 -2.34 25.36 -2 24 C-11.9 24 -21.8 24 -32 24 C-32 23.67 -32 23.34 -32 23 C-27.38 22.67 -22.76 22.34 -18 22 C-19.464375 21.87625 -20.92875 21.7525 -22.4375 21.625 C-24.93359375 21.4140625 -24.93359375 21.4140625 -27 21 C-27.495 20.01 -27.495 20.01 -28 19 C-27.34 19 -26.68 19 -26 19 C-26 18.01 -26 17.02 -26 16 C-23.36 16 -20.72 16 -18 16 C-18 16.99 -18 17.98 -18 19 C-13.38 19 -8.76 19 -4 19 C-2.68 12.73 -1.36 6.46 0 0 Z "
     fill="#585754"
     transform="translate(143,106)"
     id="path7" />
  <path
     d="M0 0 C0.33 0.99 0.66 1.98 1 3 C1.99 2.67 2.98 2.34 4 2 C5.61756358 1.90755446 7.23868428 1.87208675 8.85888672 1.87060547 C10.35476318 1.86596786 10.35476318 1.86596786 11.88085938 1.86123657 C12.96947266 1.86320038 14.05808594 1.86516418 15.1796875 1.8671875 C16.32002441 1.86568695 17.46036133 1.8641864 18.63525391 1.86264038 C22.38187077 1.8602703 26.12839258 1.86656932 29.875 1.875 C31.14555237 1.87721558 32.41610474 1.87943115 33.72515869 1.88171387 C42.8169181 1.90032135 51.90839523 1.94508624 61 2 C62.18529297 2.0062439 63.37058594 2.01248779 64.59179688 2.0189209 C71.04321155 2.05462564 77.49359834 2.11263695 83.94439697 2.20953369 C85.89365772 2.23644944 87.84302075 2.25678439 89.79241943 2.27044678 C92.48470549 2.29139278 95.17537359 2.33738338 97.8671875 2.390625 C99.04909668 2.39248306 99.04909668 2.39248306 100.25488281 2.39437866 C105.52750043 2.53894424 105.52750043 2.53894424 107.95556641 4.90820312 C109.0040619 7.0081352 109.82110972 9.00319644 110.5 11.25 C112.20517544 16.66748447 114.06237125 21.96167663 116.4375 27.125 C119.49001481 34.13928936 122.42170677 42.29294518 122 50 C120.79371992 47.66785852 119.8345262 45.50357861 119 43 C118.34 43 117.68 43 117 43 C116.84442627 42.46221924 116.68885254 41.92443848 116.52856445 41.37036133 C113.43016993 30.7130212 110.1670207 20.29499233 106 10 C99.73 9.67 93.46 9.34 87 9 C87 9.66 87 10.32 87 11 C82.6263169 12.55195207 79.71757908 11.45675362 75.57421875 9.88671875 C67.00704982 6.93566056 59.2341125 6.73479521 50.21875 6.8046875 C48.79529012 6.80842394 47.37182764 6.81126793 45.94836426 6.81326294 C42.22640716 6.82084975 38.50460953 6.84045481 34.78271484 6.8626709 C30.97495683 6.88323686 27.16717271 6.8922875 23.359375 6.90234375 C15.9061778 6.92370611 8.45311136 6.95778115 1 7 C0.67 7.99 0.34 8.98 0 10 C-0.33 10 -0.66 10 -1 10 C-0.67 6.7 -0.34 3.4 0 0 Z "
     fill="#08465F"
     transform="translate(26,19)"
     id="path8" />
  <path
     d="M0 0 C0.66 0 1.32 0 2 0 C7.25375602 17.6325279 12.04580411 34.66382153 14 53 C12.515 53.495 12.515 53.495 11 54 C11 53.34 11 52.68 11 52 C10.4225 51.773125 9.845 51.54625 9.25 51.3125 C-0.50474178 45.62223396 -3.61528579 29.63827148 -6.3359375 19.375 C-7.25563257 14.70078505 -7.80666851 11.53137604 -5.5390625 7.2265625 C-4.90742188 6.36804688 -4.27578125 5.50953125 -3.625 4.625 C-2.99851562 3.75101562 -2.37203125 2.87703125 -1.7265625 1.9765625 C-1.15679687 1.32429688 -0.58703125 0.67203125 0 0 Z "
     fill="#A8AFB0"
     transform="translate(14,77)"
     id="path9" />
  <path
     d="M0 0 C5.13651103 0.01039446 10.27302729 0.01483148 15.4095459 0.01983643 C25.41346547 0.03042865 35.41736244 0.04740099 45.42126465 0.06866455 C45.42126465 0.39866455 45.42126465 0.72866455 45.42126465 1.06866455 C34.08800705 1.24061514 22.75467468 1.40707389 11.42126465 1.56866455 C10.58846607 1.5805418 9.7556675 1.59241905 8.8976326 1.60465622 C-16.5955255 1.96657212 -42.08257169 2.22964081 -67.57873535 2.06866455 C-67.70925293 2.73172607 -67.83977051 3.3947876 -67.97424316 4.07794189 C-72.59405001 27.49655998 -72.59405001 27.49655998 -75.19885254 38.85211182 C-75.99310627 42.33482582 -76.73044586 45.81237746 -77.35217285 49.3303833 C-77.47576172 50.01342529 -77.59935059 50.69646729 -77.72668457 51.40020752 C-78.05400666 53.24201852 -78.36396164 55.08689279 -78.67248535 56.9319458 C-79.69514501 60.47158246 -81.16058807 62.32748232 -83.57873535 65.06866455 C-84.3623449 66.31905386 -85.11856995 67.587649 -85.82873535 68.88116455 C-86.40623535 69.93303955 -86.98373535 70.98491455 -87.57873535 72.06866455 C-88.86075982 68.40857574 -88.30978937 65.72256252 -87.5045166 61.97491455 C-87.2486377 60.77866455 -86.99275879 59.58241455 -86.72912598 58.34991455 C-86.45262207 57.10210205 -86.17611816 55.85428955 -85.89123535 54.56866455 C-85.63406738 53.35178955 -85.37689941 52.13491455 -85.11193848 50.88116455 C-82.96373487 41.00048361 -79.96911064 31.56198256 -76.35998535 22.1272583 C-75.08114082 18.75750296 -73.86638203 15.36448703 -72.64123535 11.97491455 C-71.7758579 9.60785269 -70.89817181 7.24645511 -70.0123291 4.88702393 C-69.743479 4.17074829 -69.47462891 3.45447266 -69.19763184 2.7164917 C-68.993396 2.17270874 -68.78916016 1.62892578 -68.57873535 1.06866455 C-45.72637307 -0.17937987 -22.87791855 -0.05132896 0 0 Z "
     fill="#A9BFC7"
     transform="translate(95.5787353515625,10.93133544921875)"
     id="path10" />
  <path
     d="M0 0 C1.95463193 7.81278257 3.907987 15.62586406 5.8515625 23.44140625 C6.14546875 24.62154297 6.439375 25.80167969 6.7421875 27.01757812 C7.33942932 29.41579474 7.93575808 31.8142389 8.53125 34.21289062 C8.82257813 35.38142578 9.11390625 36.54996094 9.4140625 37.75390625 C9.68637695 38.84848145 9.95869141 39.94305664 10.23925781 41.07080078 C10.85441055 43.43941522 11.53338859 45.75875165 12.2734375 48.08984375 C12.98335407 50.93332681 13.07550994 52.31122516 12 55 C9.61542623 48.20396475 7.77279496 41.3462994 6.0625 34.35546875 C5.06503319 31.20538054 4.05828428 29.50573738 2 27 C1.27359045 24.68456957 0.61568542 22.34730065 0 20 C-0.51233052 18.47628125 -1.03349628 16.95551069 -1.5625 15.4375 C-2.73522029 11.97856743 -3.53406774 8.63427166 -4 5 C-4.99 4.67 -5.98 4.34 -7 4 C-7 3.34 -7 2.68 -7 2 C-8.23098167 2.01879211 -8.23098167 2.01879211 -9.48683167 2.03796387 C-17.37971214 2.158032 -25.27262365 2.27577016 -33.16557407 2.39115143 C-37.21936996 2.45048612 -41.27315064 2.51059579 -45.3269043 2.57275391 C-66.5530939 2.89753465 -87.77120988 3.07480954 -109 3 C-109 2.67 -109 2.34 -109 2 C-101.37656861 1.20450287 -93.81435559 0.80735315 -86.15234375 0.68359375 C-84.47967186 0.65235413 -84.47967186 0.65235413 -82.77320862 0.6204834 C-79.16136993 0.55485707 -75.54946437 0.49576616 -71.9375 0.4375 C-70.70676758 0.41632111 -69.47603516 0.39514221 -68.20800781 0.37332153 C-45.47088581 -0.01633862 -22.73977861 -0.12163311 0 0 Z "
     fill="#091C26"
     transform="translate(137,15)"
     id="path11" />
  <path
     d="M0 0 C36.96 0 73.92 0 112 0 C111.67 3.96 111.34 7.92 111 12 C110.67 12 110.34 12 110 12 C109.67 8.7 109.34 5.4 109 2 C108.08379883 2.03029297 107.16759766 2.06058594 106.22363281 2.09179688 C80.93953981 2.90293007 55.66966511 3.09055842 30.375 3.0625 C29.5978212 3.06164398 28.8206424 3.06078796 28.01991272 3.05990601 C18.34658463 3.04846446 8.67329388 3.02831452 -1 3 C-0.67 2.01 -0.34 1.02 0 0 Z "
     fill="#676867"
     transform="translate(28,13)"
     id="path12" />
  <path
     d="M0 0 C-0.66 0.66 -1.32 1.32 -2 2 C3.4421357 4.70688742 7.73824833 5.46181017 13.77734375 5.51171875 C14.58869278 5.52966995 15.40004181 5.54762115 16.23597717 5.56611633 C18.80310008 5.61988463 21.3700407 5.65400616 23.9375 5.6875 C25.68817623 5.72070276 27.4388285 5.75519513 29.18945312 5.79101562 C33.45950314 5.87559126 37.72950225 5.94256074 42 6 C42 5.01 42 4.02 42 3 C51.57 3 61.14 3 71 3 C71 4.32 71 5.64 71 7 C48.43976519 7.5532643 25.88053407 8.09891116 3.3125 8.125 C2.17149841 8.12874634 2.17149841 8.12874634 1.00744629 8.13256836 C-1.12399017 8.13838401 -3.25528126 8.13703135 -5.38671875 8.1328125 C-6.57483154 8.13168457 -7.76294434 8.13055664 -8.98706055 8.12939453 C-11.5174982 8.02072166 -13.59460563 7.74541687 -16 7 C-16 6.34 -16 5.68 -16 5 C-16.66 5 -17.32 5 -18 5 C-18 4.01 -18 3.02 -18 2 C-11.88019467 0.59545452 -6.28260706 -0.23268915 0 0 Z "
     fill="#6C7072"
     transform="translate(34,136)"
     id="path13" />
  <path
     d="M0 0 C0.33 0 0.66 0 1 0 C0.90912109 0.98226562 0.90912109 0.98226562 0.81640625 1.984375 C0.54053427 4.98925745 0.26925631 7.99451739 0 11 C-0.14308594 12.59714844 -0.14308594 12.59714844 -0.2890625 14.2265625 C-0.42441406 15.78503906 -0.42441406 15.78503906 -0.5625 17.375 C-0.64628906 18.33148438 -0.73007813 19.28796875 -0.81640625 20.2734375 C-0.99052028 22.85921611 -1.03297152 25.40938056 -1 28 C-9.25924032 33.120729 -16.29633059 33.13917654 -25.875 33.0625 C-27.47988281 33.05573242 -27.47988281 33.05573242 -29.1171875 33.04882812 C-31.74484986 33.03709749 -34.37239538 33.02068228 -37 33 C-36.34 32.01 -35.68 31.02 -35 30 C-35.515625 30.33 -36.03125 30.66 -36.5625 31 C-39.78026512 32.32010877 -42.5570528 32.13242105 -46 32 C-44.71394534 29.42789068 -43.63378232 29.06671543 -41 28 C-38.94116211 27.74121094 -38.94116211 27.74121094 -36.77734375 27.734375 C-35.99166016 27.73179687 -35.20597656 27.72921875 -34.39648438 27.7265625 C-33.58501953 27.73429687 -32.77355469 27.74203125 -31.9375 27.75 C-30.71450195 27.73839844 -30.71450195 27.73839844 -29.46679688 27.7265625 C-28.68240234 27.72914063 -27.89800781 27.73171875 -27.08984375 27.734375 C-26.37691162 27.73663086 -25.66397949 27.73888672 -24.92944336 27.74121094 C-23 28 -23 28 -20 30 C-14.03405612 30.70923808 -8.63371008 29.95955133 -3 28 C-2.67 26.68 -2.34 25.36 -2 24 C-11.9 24 -21.8 24 -32 24 C-32 23.67 -32 23.34 -32 23 C-27.38 22.67 -22.76 22.34 -18 22 C-19.464375 21.87625 -20.92875 21.7525 -22.4375 21.625 C-24.93359375 21.4140625 -24.93359375 21.4140625 -27 21 C-27.33 20.34 -27.66 19.68 -28 19 C-27.34 19 -26.68 19 -26 19 C-26 18.01 -26 17.02 -26 16 C-23.36 16 -20.72 16 -18 16 C-18 16.99 -18 17.98 -18 19 C-13.38 19 -8.76 19 -4 19 C-2.68 12.73 -1.36 6.46 0 0 Z "
     fill="#365F70"
     transform="translate(143,106)"
     id="path14" />
  <path
     d="M0 0 C0.99 0 1.98 0 3 0 C2.32775671 6.30584817 1.52918619 12.57901087 0.625 18.85546875 C0.49561035 19.76073807 0.3662207 20.66600739 0.23291016 21.59870911 C-0.03872216 23.49713519 -0.31102902 25.39546487 -0.58398438 27.29370117 C-1.00031796 30.18971175 -1.41439102 33.08603888 -1.828125 35.98242188 C-2.09361765 37.83595646 -2.35923822 39.68947273 -2.625 41.54296875 C-2.74794434 42.40246628 -2.87088867 43.26196381 -2.99755859 44.14750671 C-3.11437988 44.95887589 -3.23120117 45.77024506 -3.3515625 46.60620117 C-3.45291504 47.31185715 -3.55426758 48.01751312 -3.65869141 48.74455261 C-4.07582516 51.50107045 -4.54167192 54.25003154 -5 57 C0.61 57.33 6.22 57.66 12 58 C12 58.33 12 58.66 12 59 C5.07 59 -1.86 59 -9 59 C-10.12508561 48.87422954 -10.12508561 48.87422954 -9.30322266 44.49609375 C-9.12618805 43.51898438 -8.94915344 42.541875 -8.76675415 41.53515625 C-8.56786591 40.51292969 -8.36897766 39.49070313 -8.1640625 38.4375 C-7.86585098 36.82875 -7.86585098 36.82875 -7.56161499 35.1875 C-7.14214167 32.93750999 -6.71655582 30.68865178 -6.28515625 28.44091797 C-5.62214314 24.98510925 -4.97746758 21.52626121 -4.3359375 18.06640625 C-3.92553012 15.87740687 -3.51410822 13.68859739 -3.1015625 11.5 C-2.80930283 9.94236938 -2.80930283 9.94236938 -2.51113892 8.35327148 C-2.32779999 7.40137939 -2.14446106 6.4494873 -1.95556641 5.46875 C-1.79488678 4.62763672 -1.63420715 3.78652344 -1.46865845 2.91992188 C-1 1 -1 1 0 0 Z "
     fill="#B9C9D1"
     transform="translate(151,74)"
     id="path15" />
  <path
     d="M0 0 C1.65322266 0.00676758 1.65322266 0.00676758 3.33984375 0.01367188 C5.97662886 0.02513616 8.6132782 0.04134112 11.25 0.0625 C10.46875 3.90625 10.46875 3.90625 8.5 5.3125 C5.93787461 6.1665418 3.93423297 6.28014051 1.25 6.0625 C0.755 5.5675 0.755 5.5675 0.25 5.0625 C-4.33634495 4.25456868 -8.76271048 3.93437434 -13.4140625 3.9296875 C-14.68693115 3.92775391 -15.9597998 3.92582031 -17.27124023 3.92382812 C-18.63916154 3.92794893 -20.00708156 3.93251706 -21.375 3.9375 C-22.42362717 3.93882935 -22.42362717 3.93882935 -23.49343872 3.94018555 C-34.95177879 3.95708983 -46.38240525 4.26349028 -57.83276367 4.70214844 C-71.54795405 5.22477721 -85.06474347 5.27703941 -98.75 4.0625 C-98.75 3.7325 -98.75 3.4025 -98.75 3.0625 C-97.98008728 3.03966446 -97.21017456 3.01682892 -96.41693115 2.99330139 C-89.06502609 2.77488209 -81.71318398 2.55448402 -74.3614006 2.33200932 C-70.58422574 2.21777292 -66.80703299 2.10423113 -63.02978516 1.99243164 C-58.66041551 1.86298689 -54.29111436 1.73142686 -49.921875 1.59765625 C-49.20890007 1.57584856 -48.49592514 1.55404087 -47.76134491 1.53157234 C-38.54403093 1.24669727 -29.33684513 0.87263886 -20.12878418 0.37075806 C-13.41691614 0.01598789 -6.72107021 -0.05495215 0 0 Z "
     fill="#B7C3C9"
     transform="translate(129.75,129.9375)"
     id="path16" />
  <path
     d="M0 0 C0.68100266 0.00141495 1.36200531 0.0028299 2.06364441 0.00428772 C4.22346522 0.00985327 6.38317964 0.02239922 8.54296875 0.03515625 C10.01367037 0.04017571 11.48437363 0.04473784 12.95507812 0.04882812 C16.54690915 0.05981137 20.13867855 0.07705203 23.73046875 0.09765625 C23.73046875 0.75765625 23.73046875 1.41765625 23.73046875 2.09765625 C22.74046875 2.42765625 21.75046875 2.75765625 20.73046875 3.09765625 C23.70046875 3.42765625 26.67046875 3.75765625 29.73046875 4.09765625 C29.73046875 5.08765625 29.73046875 6.07765625 29.73046875 7.09765625 C24.60761641 7.17224975 19.48508571 7.22646642 14.36181641 7.26245117 C12.62185147 7.27746479 10.88192391 7.29788202 9.14208984 7.32397461 C6.62978855 7.36068732 4.11799095 7.37745694 1.60546875 7.390625 C0.8374292 7.40610886 0.06938965 7.42159271 -0.72192383 7.43754578 C-6.19748677 7.43922206 -10.23637597 6.26221261 -15.26953125 4.09765625 C-10.89953268 -0.5838794 -6.17298188 -0.02540322 0 0 Z "
     fill="#565A5E"
     transform="translate(46.26953125,134.90234375)"
     id="path17" />
  <path
     d="M0 0 C2.26382214 0.00533863 4.52744377 0.00003275 6.79125977 -0.00634766 C33.14063589 -0.0228252 33.14063589 -0.0228252 39.96508789 3.13037109 C39.63508789 3.79037109 39.30508789 4.45037109 38.96508789 5.13037109 C38.47008789 4.63537109 38.47008789 4.63537109 37.96508789 4.13037109 C36.54833175 4.00768779 35.1256493 3.95256272 33.70385742 3.92504883 C32.78564209 3.90510864 31.86742676 3.88516846 30.92138672 3.86462402 C29.90713623 3.84790649 28.89288574 3.83118896 27.84790039 3.81396484 C26.78772705 3.79313843 25.72755371 3.77231201 24.63525391 3.75085449 C21.12027716 3.68414338 17.60522332 3.62557433 14.09008789 3.56787109 C12.29930817 3.53610275 12.29930817 3.53610275 10.47235107 3.50369263 C-15.36348852 3.0480299 -41.19601755 3.02316261 -67.03491211 3.13037109 C-66.70491211 2.47037109 -66.37491211 1.81037109 -66.03491211 1.13037109 C-64.35703613 1.13822632 -64.35703613 1.13822632 -62.64526367 1.14624023 C-58.44068217 1.16452822 -54.23610409 1.17588887 -50.03149414 1.18530273 C-48.22191779 1.19028912 -46.41234537 1.19708064 -44.6027832 1.20581055 C-35.71042444 1.24759333 -26.93256711 1.23598401 -18.07543945 0.35961914 C-12.06225076 -0.09376003 -6.02719604 -0.01684479 0 0 Z "
     fill="#033448"
     transform="translate(94.034912109375,18.86962890625)"
     id="path18" />
  <path
     d="M0 0 C5.072007 -0.04942365 10.14387394 -0.08573068 15.21606445 -0.10986328 C16.94167523 -0.11992326 18.66726895 -0.13357276 20.39282227 -0.15087891 C22.8726014 -0.17512754 25.35215523 -0.18648301 27.83203125 -0.1953125 C28.60400345 -0.20563507 29.37597565 -0.21595764 30.17134094 -0.22659302 C33.99281476 -0.22739422 35.74136107 -0.17242595 39 2 C40.09765625 3.953125 40.09765625 3.953125 41.0625 6.25 C41.4028125 7.05695312 41.743125 7.86390625 42.09375 8.6953125 C43.16973139 11.43164448 44.08857144 14.20495241 45 17 C45.45375 17.99 45.9075 18.98 46.375 20 C49.45738949 27.049978 52.42430827 35.24540055 52 43 C50.79371992 40.66785852 49.8345262 38.50357861 49 36 C48.34 36 47.68 36 47 36 C46.84442627 35.46221924 46.68885254 34.92443848 46.52856445 34.37036133 C43.43016993 23.7130212 40.1670207 13.29499233 36 3 C29.73 2.67 23.46 2.34 17 2 C17 2.66 17 3.32 17 4 C11.93055704 5.7988346 7.73067049 4.0109779 3 2 C2.01 1.34 1.02 0.68 0 0 Z "
     fill="#0E526E"
     transform="translate(96,26)"
     id="path19" />
  <path
     d="M0 0 C-0.33 0.66 -0.66 1.32 -1 2 C-2.99338221 2.37086181 -4.99512332 2.69737711 -7 3 C-9.01089078 3.63305821 -11.01463373 4.29094062 -13 5 C-13 4.34 -13 3.68 -13 3 C-14.39613065 3.14295891 -15.79189308 3.28951558 -17.1875 3.4375 C-17.96480469 3.51871094 -18.74210937 3.59992187 -19.54296875 3.68359375 C-21.98211121 3.9535291 -21.98211121 3.9535291 -24.2578125 4.5390625 C-28.82262044 5.3063664 -33.41047582 5.0002751 -38.02539062 4.87304688 C-40.01715711 4.8434748 -42.00983958 4.91473712 -44 5 C-46.22189824 7.22189824 -46.92598892 9.08482708 -48 12 C-49.55945072 8.88109857 -48.64552918 6.34501482 -48 3 C-47.34 2.01 -46.68 1.02 -46 0 C-43.27291199 -0.35119125 -40.76259077 -0.51306659 -38.02734375 -0.546875 C-37.23026505 -0.56719788 -36.43318634 -0.58752075 -35.61195374 -0.60845947 C-33.91991983 -0.64872608 -32.22770392 -0.6818709 -30.53540039 -0.70849609 C-27.97155455 -0.74945595 -25.40899354 -0.81216033 -22.84570312 -0.87890625 C-21.1979449 -0.91536201 -19.55015821 -0.95055674 -17.90234375 -0.984375 C-17.14573959 -1.0019989 -16.38913544 -1.0196228 -15.60960388 -1.03778076 C-10.32491415 -1.11279184 -5.24388294 -0.66615785 0 0 Z "
     fill="#125773"
     transform="translate(73,26)"
     id="path20" />
  <path
     d="M0 0 C15.27690157 0.12667706 25.12753843 3.29614557 36.5144043 13.91210938 C42.35898612 19.89360673 45.61262794 25.2721751 47.74487305 33.33007812 C47.9665918 33.98234375 48.18831055 34.63460937 48.41674805 35.30664062 C51.34921696 44.61921081 50.2990336 55.07124614 47.74487305 64.33007812 C47.41487305 64.33007812 47.08487305 64.33007812 46.74487305 64.33007812 C46.76582031 63.67112549 46.78676758 63.01217285 46.80834961 62.33325195 C47.31624984 43.9250832 46.95637906 28.63709512 33.8659668 14.26757812 C24.52297031 5.50969859 13.34556367 1.92118042 0.74487305 2.20507812 C-0.02985352 2.21410156 -0.80458008 2.223125 -1.6027832 2.23242188 C-3.48703538 2.25568425 -5.37112527 2.29154173 -7.25512695 2.33007812 C-4.79912432 -0.12592451 -3.36009996 0.049675 0 0 Z "
     fill="#5B7B87"
     transform="translate(80.255126953125,24.669921875)"
     id="path21" />
  <path
     d="M0 0 C2.24244121 2.24244121 2.39932877 3.05280144 2.96484375 6.078125 C3.20315918 7.31574585 3.20315918 7.31574585 3.44628906 8.57836914 C3.68943848 9.90082642 3.68943848 9.90082642 3.9375 11.25 C4.28426106 13.06657736 4.63192284 14.88298301 4.98046875 16.69921875 C5.1511084 17.59688965 5.32174805 18.49456055 5.49755859 19.41943359 C6.40526729 24.08147487 7.4482471 28.71263731 8.484375 33.34765625 C9 36 9 36 9 39 C7.68 39 6.36 39 5 39 C0.92739327 25.65041274 -2.22832755 13.95743348 0 0 Z "
     fill="#898886"
     transform="translate(145,30)"
     id="path22" />
  <path
     d="M0 0 C1.25893066 -0.00201416 2.51786133 -0.00402832 3.81494141 -0.00610352 C5.14876484 -0.00202109 6.48258665 0.0026267 7.81640625 0.0078125 C8.4888739 0.00903107 9.16134155 0.01024963 9.85418701 0.01150513 C35.11725593 0.06550057 35.11725593 0.06550057 42.37890625 2.1328125 C42.04890625 2.7928125 41.71890625 3.4528125 41.37890625 4.1328125 C23.27702216 4.42859492 5.41611489 3.6675467 -12.62109375 2.1328125 C-12.62109375 1.8028125 -12.62109375 1.4728125 -12.62109375 1.1328125 C-8.36070877 0.32280444 -4.33428733 0.00432656 0 0 Z "
     fill="#0D4A62"
     transform="translate(90.62109375,22.8671875)"
     id="path23" />
  <path
     d="M0 0 C2.10263102 3.15394652 3.01776618 5.82463704 4.125 9.4375 C4.47820313 10.57058594 4.83140625 11.70367187 5.1953125 12.87109375 C6 16 6 16 6 20 C10.62 20 15.24 20 20 20 C20 20.33 20 20.66 20 21 C0.03189066 23.11161731 0.03189066 23.11161731 -9 24 C-9 24.99 -9 25.98 -9 27 C-8.34 27.33 -7.68 27.66 -7 28 C-8.98 28 -10.96 28 -13 28 C-13 27.01 -13 26.02 -13 25 C-14.32 24.67 -15.64 24.34 -17 24 C-11.06 22.35 -5.12 20.7 1 19 C1 18.01 1 17.02 1 16 C1.66 16 2.32 16 3 16 C2.7834375 15.18015625 2.566875 14.3603125 2.34375 13.515625 C2.0653125 12.43796875 1.786875 11.3603125 1.5 10.25 C1.2215625 9.18265625 0.943125 8.1153125 0.65625 7.015625 C0 4 0 4 0 0 Z "
     fill="#B6C7CE"
     transform="translate(25,114)"
     id="path24" />
  <path
     d="M0 0 C0.78568359 -0.00257813 1.57136719 -0.00515625 2.38085938 -0.0078125 C3.59805664 0.00378906 3.59805664 0.00378906 4.83984375 0.015625 C5.65517578 0.00789062 6.47050781 0.00015625 7.31054688 -0.0078125 C8.09494141 -0.00523437 8.87933594 -0.00265625 9.6875 0 C10.40043213 0.00225586 11.11336426 0.00451172 11.84790039 0.00683594 C13.77734375 0.265625 13.77734375 0.265625 16.77734375 2.265625 C22.74328763 2.97486308 28.14363367 2.22517633 33.77734375 0.265625 C31.0737373 3.98308387 27.07351086 4.57371061 22.77734375 5.265625 C18.77248248 5.49190802 14.78688174 5.45586154 10.77734375 5.390625 C9.71644531 5.38160156 8.65554687 5.37257812 7.5625 5.36328125 C4.96720737 5.33990024 2.3723991 5.30713056 -0.22265625 5.265625 C0.43734375 4.275625 1.09734375 3.285625 1.77734375 2.265625 C1.26171875 2.595625 0.74609375 2.925625 0.21484375 3.265625 C-3.00292137 4.58573377 -5.77970905 4.39804605 -9.22265625 4.265625 C-7.34095398 0.50222046 -3.94280343 0.01245611 0 0 Z "
     fill="#3D4042"
     transform="translate(106.22265625,133.734375)"
     id="path25" />
  <path
     d="M0 0 C3.05974974 2.03983316 4.53199946 3.64457019 6 7 C6.99 8.485 6.99 8.485 8 10 C8.53850751 11.8220444 9.00961458 13.66447665 9.4375 15.515625 C9.69273437 16.60230469 9.94796875 17.68898438 10.2109375 18.80859375 C10.60152344 20.51208984 10.60152344 20.51208984 11 22.25 C11.51945736 24.48469529 12.04025557 26.7190794 12.5625 28.953125 C12.80613281 30.00564453 13.04976562 31.05816406 13.30078125 32.14257812 C13.87322667 34.48192909 14.5206867 36.75369863 15.25 39.046875 C15.97980063 41.92046496 16.08660566 43.28348584 15 46 C12.61542623 39.20396475 10.77279496 32.3462994 9.0625 25.35546875 C8.06503319 22.20538054 7.05828428 20.50573738 5 18 C4.27359045 15.68456957 3.61568542 13.34730065 3 11 C2.21578381 8.63182239 1.40515742 6.27423989 0.5859375 3.91796875 C0 2 0 2 0 0 Z "
     fill="#112F3B"
     transform="translate(134,24)"
     id="path26" />
  <path
     d="M0 0 C0.74958984 0.00451172 1.49917969 0.00902344 2.27148438 0.01367188 C4.11852383 0.02543646 5.96552213 0.04337135 7.8125 0.0625 C7.8125 0.7225 7.8125 1.3825 7.8125 2.0625 C6.8225 2.3925 5.8325 2.7225 4.8125 3.0625 C7.7825 3.3925 10.7525 3.7225 13.8125 4.0625 C13.8125 5.0525 13.8125 6.0425 13.8125 7.0625 C12.20842672 7.08958567 10.6042215 7.10893483 9 7.125 C7.66001953 7.14240234 7.66001953 7.14240234 6.29296875 7.16015625 C3.8125 7.0625 3.8125 7.0625 0.8125 6.0625 C0.8125 5.4025 0.8125 4.7425 0.8125 4.0625 C-0.425 4.248125 -1.6625 4.43375 -2.9375 4.625 C-5.95029577 5.00961223 -8.28760827 5.1499594 -11.1875 4.0625 C-11.1875 3.0725 -11.1875 2.0825 -11.1875 1.0625 C-7.42449626 -0.19183458 -3.91539091 -0.04445422 0 0 Z "
     fill="#323335"
     transform="translate(62.1875,134.9375)"
     id="path27" />
  <path
     d="M0 0 C-0.99 0.66 -1.98 1.32 -3 2 C-3 2.66 -3 3.32 -3 4 C-0.15464275 5.42267862 2.36218552 5.21971869 5.5390625 5.31640625 C6.84101562 5.35830078 8.14296875 5.40019531 9.484375 5.44335938 C10.86458045 5.48317299 12.24478883 5.52288522 13.625 5.5625 C15.01303415 5.60569407 16.40105528 5.64930865 17.7890625 5.69335938 C21.19260256 5.79972 24.59621778 5.90174714 28 6 C28 6.33 28 6.66 28 7 C22.94629268 7.02474322 17.89262074 7.04288053 12.83886719 7.05493164 C11.12011094 7.0599563 9.40135895 7.0667771 7.68261719 7.07543945 C5.21027574 7.0875868 2.73799088 7.09324703 0.265625 7.09765625 C-0.88459137 7.10539818 -0.88459137 7.10539818 -2.05804443 7.11329651 C-5.54849615 7.11366245 -8.64274473 6.93752738 -12 6 C-12 5.34 -12 4.68 -12 4 C-12.66 4 -13.32 4 -14 4 C-14 3.01 -14 2.02 -14 1 C-12.41913952 0.63495397 -10.83516093 0.28339494 -9.25 -0.0625 C-8.36828125 -0.25972656 -7.4865625 -0.45695313 -6.578125 -0.66015625 C-4.01320972 -0.99825872 -2.42908361 -0.81158635 0 0 Z "
     fill="#A2A8A9"
     transform="translate(30,137)"
     id="path28" />
  <path
     d="M0 0 C1.07128647 0.00718552 2.14257294 0.01437103 3.24632263 0.02177429 C4.40777298 0.03626114 5.56922333 0.05074799 6.76586914 0.06567383 C8.54883141 0.08686028 8.54883141 0.08686028 10.36781311 0.10847473 C12.88555113 0.14163289 15.40324865 0.17799449 17.92089844 0.21728516 C21.78135482 0.27242412 25.64146391 0.30101773 29.50219727 0.3293457 C31.9442791 0.36480321 34.38633836 0.40185926 36.82836914 0.44067383 C38.56750832 0.44722237 38.56750832 0.44722237 40.34178162 0.4539032 C41.41622025 0.47684952 42.49065887 0.49979584 43.59765625 0.5234375 C44.5442662 0.53533615 45.49087616 0.5472348 46.46617126 0.55949402 C48.86352539 1.08520508 48.86352539 1.08520508 50.69264221 3.12031555 C51.07903366 3.7687291 51.46542511 4.41714264 51.86352539 5.08520508 C51.53352539 5.74520508 51.20352539 6.40520508 50.86352539 7.08520508 C50.36852539 5.60020508 50.36852539 5.60020508 49.86352539 4.08520508 C40.63119923 3.40313349 31.42961978 3.04080767 22.17211914 3.08911133 C21.41390869 3.09264618 20.65569824 3.09618103 19.87451172 3.099823 C16.03082945 3.12097725 12.18785475 3.15731985 8.34448242 3.21020508 C6.90421745 3.2221615 5.46395056 3.23389 4.02368164 3.24536133 C2.74114502 3.26219971 1.4586084 3.27903809 0.13720703 3.29638672 C-2.93031263 3.09850436 -4.58078024 2.7149174 -7.13647461 1.08520508 C-4.59258539 -0.18673953 -2.84696441 -0.02384179 0 0 Z "
     fill="#063F55"
     transform="translate(83.136474609375,20.914794921875)"
     id="path29" />
  <path
     d="M0 0 C0.79339783 0.0028299 1.58679565 0.00565979 2.40423584 0.00857544 C4.93110417 0.01974471 7.45761432 0.04484306 9.984375 0.0703125 C11.7005157 0.08034652 13.41666198 0.08947163 15.1328125 0.09765625 C19.33347074 0.11967336 23.5338622 0.15418063 27.734375 0.1953125 C23.984375 3.1953125 23.984375 3.1953125 21.734375 3.1953125 C21.734375 2.5353125 21.734375 1.8753125 21.734375 1.1953125 C20.33824435 1.33827141 18.94248192 1.48482808 17.546875 1.6328125 C16.76957031 1.71402344 15.99226563 1.79523437 15.19140625 1.87890625 C12.75226379 2.1488416 12.75226379 2.1488416 10.4765625 2.734375 C5.91175456 3.5016789 1.32389918 3.1955876 -3.29101562 3.06835938 C-5.28278211 3.0387873 -7.27546458 3.11004962 -9.265625 3.1953125 C-11.48752324 5.41721074 -12.19161392 7.28013958 -13.265625 10.1953125 C-14.265625 8.1953125 -14.265625 8.1953125 -13.578125 5.1953125 C-12.265625 2.1953125 -12.265625 2.1953125 -10.70019531 1.02001953 C-7.15850284 -0.17972347 -3.69407982 -0.04972856 0 0 Z "
     fill="#176482"
     transform="translate(38.265625,27.8046875)"
     id="path30" />
  <path
     d="M0 0 C4.27207613 7.68973703 6.29862491 18.26379608 5 27 C4.34 27.99 3.68 28.98 3 30 C0.00058322 19.9573099 -2.79432384 10.4787144 0 0 Z "
     fill="#888684"
     transform="translate(140,13)"
     id="path31" />
  <path
     d="M0 0 C8.25 0 16.5 0 25 0 C24 4 24 4 22.25 5.25 C19.68787461 6.1040418 17.68423297 6.21764051 15 6 C14.67 5.67 14.34 5.34 14 5 C11.47804033 4.60056824 8.97036344 4.24920152 6.4375 3.9375 C5.72658203 3.84662109 5.01566406 3.75574219 4.28320312 3.66210938 C2.52261597 3.43760497 0.76136522 3.21831603 -1 3 C-0.67 2.01 -0.34 1.02 0 0 Z "
     fill="#96ADB7"
     transform="translate(116,130)"
     id="path32" />
  <path
     d="M0 0 C1.03414032 -0.00143509 1.03414032 -0.00143509 2.08917236 -0.00289917 C3.54838146 -0.00357925 5.0075936 -0.00173693 6.46679688 0.00244141 C8.6810604 0.00775951 10.89511805 0.0025076 13.109375 -0.00390625 C14.53125044 -0.0032448 15.95312576 -0.00196226 17.375 0 C19.30230957 0.00169189 19.30230957 0.00169189 21.26855469 0.00341797 C31.1715016 0.3511891 31.1715016 0.3511891 34.953125 4.1328125 C30.663125 4.1328125 26.373125 4.1328125 21.953125 4.1328125 C21.953125 3.4728125 21.953125 2.8128125 21.953125 2.1328125 C9.083125 1.6378125 9.083125 1.6378125 -4.046875 1.1328125 C-3.716875 2.1228125 -3.386875 3.1128125 -3.046875 4.1328125 C-6.016875 4.1328125 -8.986875 4.1328125 -12.046875 4.1328125 C-8.82801298 -0.69548053 -5.44735126 0.00479882 0 0 Z "
     fill="#72797D"
     transform="translate(98.046875,132.8671875)"
     id="path33" />
  <path
     d="M 0,0 H 1 C 1.070386,4.0120242 1.053821,7.653152 0.4375,11.625 -0.183529,14.932029 -0.183529,14.932029 0.625,17.875 1,21 1,21 -2,30 L 1.1232877,30.424658 -0.4109589,31.041096 -3,32 C -4.125,21.875 -4.125,21.875 -3.2226563,17.089844 L -2.6660156,14.033203 -2.0625,10.9375 -1.4707031,7.7363281 C -0.99184857,5.1551853 -0.50143286,2.5768344 0,0 Z"
     fill="#a8b7ba"
     transform="translate(145,101)"
     id="path34" />
  <path
     d="M 0,0 H 6 V 3 L 8.8125,2.8125 C 12,3 12,3 13.875,4.5 L 15,6 C 12.37685,7.3115752 10.769666,6.8964999 7.875,6.5625 L 5.1171875,6.2539062 3,6 v 9 L 0,13 C -0.29296875,9.9609375 -0.29296875,9.9609375 -0.1875,6.375 l 0.0820313,-3.6015625 z"
     fill="#D9E2E6"
     transform="translate(6,139)"
     id="path35"
     style="fill:#ffffff" />
  <path
     d="M0 0 C9.24 0 18.48 0 28 0 C28 0.99 28 1.98 28 3 C18.76 3 9.52 3 0 3 C0 2.01 0 1.02 0 0 Z "
     fill="#ADADAE"
     transform="translate(77,139)"
     id="path36" />
  <path
     d="M0 0 C2.64 0 5.28 0 8 0 C8 0.99 8 1.98 8 3 C9.0725 2.979375 10.145 2.95875 11.25 2.9375 C14.14790424 2.9857984 16.28612141 3.13155885 19 4 C19 4.99 19 5.98 19 7 C15.37 7 11.74 7 8 7 C8 6.67 8 6.34 8 6 C7.36191406 5.95101562 6.72382812 5.90203125 6.06640625 5.8515625 C5.24011719 5.77679688 4.41382812 5.70203125 3.5625 5.625 C2.73878906 5.55539063 1.91507812 5.48578125 1.06640625 5.4140625 C0.38449219 5.27742188 -0.29742187 5.14078125 -1 5 C-1.33 4.34 -1.66 3.68 -2 3 C-1.34 3 -0.68 3 0 3 C0 2.01 0 1.02 0 0 Z "
     fill="#2A6D8A"
     transform="translate(117,122)"
     id="path37" />
  <path
     d="M0 0 C6.6 0 13.2 0 20 0 C19.67 1.65 19.34 3.3 19 5 C16.75026553 5.054138 14.50015617 5.09285491 12.25 5.125 C10.99703125 5.14820313 9.7440625 5.17140625 8.453125 5.1953125 C5.27179508 5.01537302 3.63478104 4.68998582 1 3 C3.31 3 5.62 3 8 3 C8 2.34 8 1.68 8 1 C5.36 1 2.72 1 0 1 C0 0.67 0 0.34 0 0 Z "
     fill="#585958"
     transform="translate(62,134)"
     id="path38" />
  <path
     d="M0 0 C5.94 0 11.88 0 18 0 C18 0.33 18 0.66 18 1 C12.39 1 6.78 1 1 1 C-0.65 9.25 -2.3 17.5 -4 26 C-4.33 25.34 -4.66 24.68 -5 24 C-5.99 24.33 -6.98 24.66 -8 25 C-3.89320388 7.78640777 -3.89320388 7.78640777 0 0 Z "
     fill="#ACC1C8"
     transform="translate(27,12)"
     id="path39" />
  <path
     d="M0 0 C0.66 0 1.32 0 2 0 C2.21367504 10.57691426 2.06142435 20.58244479 0 31 C-0.99 31 -1.98 31 -3 31 C-2.84402344 30.20335937 -2.68804687 29.40671875 -2.52734375 28.5859375 C-2.33269531 27.52632812 -2.13804687 26.46671875 -1.9375 25.375 C-1.74027344 24.33085938 -1.54304687 23.28671875 -1.33984375 22.2109375 C-0.85781271 19.03169834 -0.85781271 19.03169834 -1.5 16.03125 C-2.08720694 12.47130794 -1.67757173 9.6707076 -1.0625 6.125 C-0.86785156 4.97257812 -0.67320312 3.82015625 -0.47265625 2.6328125 C-0.31667969 1.76398438 -0.16070312 0.89515625 0 0 Z "
     fill="#CACCCA"
     transform="translate(146,100)"
     id="path40" />
  <path
     d="M0 0 C3.75 0.25 3.75 0.25 7 1 C7.33 2.32 7.66 3.64 8 5 C5.28598706 6.35700647 3.15153684 6.1123861 0.1171875 6.09765625 C-1.04941406 6.09443359 -2.21601563 6.09121094 -3.41796875 6.08789062 C-4.64128906 6.07951172 -5.86460937 6.07113281 -7.125 6.0625 C-8.35605469 6.05798828 -9.58710938 6.05347656 -10.85546875 6.04882812 C-13.90369392 6.0370133 -16.95182314 6.02054028 -20 6 C-20 5.67 -20 5.34 -20 5 C-18.33710937 4.96132812 -18.33710937 4.96132812 -16.640625 4.921875 C-15.17704453 4.86558344 -13.71350438 4.80823633 -12.25 4.75 C-11.15558594 4.72873047 -11.15558594 4.72873047 -10.0390625 4.70703125 C-6.42284476 4.54265772 -4.45239465 4.40901434 -1.71875 1.9375 C-1.1515625 1.298125 -0.584375 0.65875 0 0 Z "
     fill="#ABAEB4"
     transform="translate(139,135)"
     id="path41" />
  <path
     d="M0 0 C2.24244121 2.24244121 2.39932877 3.05280144 2.96484375 6.078125 C3.1237207 6.90320557 3.28259766 7.72828613 3.44628906 8.57836914 C3.60838867 9.46000732 3.77048828 10.34164551 3.9375 11.25 C4.28426106 13.06657736 4.63192284 14.88298301 4.98046875 16.69921875 C5.1511084 17.59688965 5.32174805 18.49456055 5.49755859 19.41943359 C6.40526729 24.08147487 7.4482471 28.71263731 8.484375 33.34765625 C9 36 9 36 9 39 C8.01 38.67 7.02 38.34 6 38 C6.33 37.01 6.66 36.02 7 35 C6.34 35 5.68 35 5 35 C4.94392578 33.90945312 4.94392578 33.90945312 4.88671875 32.796875 C4.45904227 26.25594059 3.41031958 20.29902158 1.69921875 13.98046875 C0.61600765 9.3632058 0.26978193 4.72583511 0 0 Z "
     fill="#8FADBB"
     transform="translate(145,30)"
     id="path42" />
  <path
     d="M0 0 C3.52081558 -0.02927632 7.04159939 -0.04689119 10.5625 -0.0625 C11.55314453 -0.07087891 12.54378906 -0.07925781 13.56445312 -0.08789062 C18.82548699 -0.10536914 23.81764665 0.07691602 29 1 C29 1.33 29 1.66 29 2 C25.04 2 21.08 2 17 2 C17 2.66 17 3.32 17 4 C11.93055704 5.7988346 7.73067049 4.0109779 3 2 C2.01 1.34 1.02 0.68 0 0 Z "
     fill="#155C77"
     transform="translate(96,26)"
     id="path43" />
  <path
     d="M0 0 C-0.33 3.96 -0.66 7.92 -1 12 C-1.33 12 -1.66 12 -2 12 C-2.33 8.7 -2.66 5.4 -3 2 C-14.55 2 -26.1 2 -38 2 C-38 1.67 -38 1.34 -38 1 C-32.9096778 0.85723101 -27.81934567 0.71482344 -22.72900391 0.57275391 C-20.99657924 0.52435127 -19.26415734 0.47584908 -17.53173828 0.42724609 C-15.04460356 0.35748673 -12.55745914 0.28808295 -10.0703125 0.21875 C-9.29317902 0.19687622 -8.51604553 0.17500244 -7.71536255 0.15246582 C-2.22774341 0 -2.22774341 0 0 0 Z "
     fill="#636668"
     transform="translate(140,13)"
     id="path44" />
  <path
     d="M0 0 C1.75570312 0.02707031 1.75570312 0.02707031 3.546875 0.0546875 C4.88492188 0.08949219 4.88492188 0.08949219 6.25 0.125 C6.25 1.45833333 6.25 2.79166667 6.25 4.125 C1.795 4.62 1.795 4.62 -2.75 5.125 C-2.09 4.135 -1.43 3.145 -0.75 2.125 C-1.265625 2.455 -1.78125 2.785 -2.3125 3.125 C-5.53026512 4.44510877 -8.3070528 4.25742105 -11.75 4.125 C-9.38409428 -0.60681145 -4.73328996 -0.0946658 0 0 Z "
     fill="#363839"
     transform="translate(108.75,133.875)"
     id="path45" />
  <path
     d="M0 0 C0 0.99 0 1.98 0 3 C-5.28 3 -10.56 3 -16 3 C-16.33 3.99 -16.66 4.98 -17 6 C-21.29 6 -25.58 6 -30 6 C-29.67 5.01 -29.34 4.02 -29 3 C-27.68 3 -26.36 3 -25 3 C-25 3.66 -25 4.32 -25 5 C-22.52733235 4.65555119 -22.52733235 4.65555119 -20 4 C-19.67 3.34 -19.34 2.68 -19 2 C-17.14233398 1.58935547 -17.14233398 1.58935547 -14.74609375 1.3671875 C-13.89208984 1.28339844 -13.03808594 1.19960937 -12.15820312 1.11328125 C-11.26037109 1.03464844 -10.36253906 0.95601562 -9.4375 0.875 C-8.53580078 0.78863281 -7.63410156 0.70226562 -6.70507812 0.61328125 C-4.47070082 0.40048341 -2.23586385 0.19645533 0 0 Z "
     fill="#525356"
     transform="translate(135,137)"
     id="path46" />
  <path
     d="M0 0 C-1.75864246 2.1793144 -2.69396 2.93686419 -5.48046875 3.51171875 C-6.37378906 3.56972656 -7.26710938 3.62773437 -8.1875 3.6875 C-9.08855469 3.75324219 -9.98960938 3.81898438 -10.91796875 3.88671875 C-11.94857422 3.94279297 -11.94857422 3.94279297 -13 4 C-13 4.99 -13 5.98 -13 7 C-12.34 7.33 -11.68 7.66 -11 8 C-12.98 8 -14.96 8 -17 8 C-17 7.01 -17 6.02 -17 5 C-18.32 4.67 -19.64 4.34 -21 4 C-18.62734939 3.32382476 -16.25244645 2.65891774 -13.875 2 C-13.20984375 1.80921875 -12.5446875 1.6184375 -11.859375 1.421875 C-7.8013795 0.30791545 -4.20314026 -0.20950232 0 0 Z "
     fill="#C4D4DC"
     transform="translate(29,134)"
     id="path47" />
  <path
     d="M0 0 C0 3.96 0 7.92 0 12 C-1.65 12.66 -3.3 13.32 -5 14 C-5.62851994 4.85154314 -5.62851994 4.85154314 -3.0625 1.375 C-1 0 -1 0 0 0 Z "
     fill="#C9CECD"
     transform="translate(17,52)"
     id="path48" />
  <path
     d="M0 0 C0.99 0 1.98 0 3 0 C3 1.65 3 3.3 3 5 C2.34 5 1.68 5 1 5 C0.87882813 5.92941406 0.75765625 6.85882813 0.6328125 7.81640625 C-1.03163445 20.09490334 -1.03163445 20.09490334 -3 26 C-3.66 26 -4.32 26 -5 26 C-4.32940637 20.3192982 -3.49204129 14.69552654 -2.5 9.0625 C-2.30470703 7.91297852 -2.30470703 7.91297852 -2.10546875 6.74023438 C-1.11977209 1.11977209 -1.11977209 1.11977209 0 0 Z "
     fill="#AAB4B6"
     transform="translate(151,74)"
     id="path49" />
  <path
     d="M0 0 C-0.99 0.33 -1.98 0.66 -3 1 C-3 1.99 -3 2.98 -3 4 C0.96 4 4.92 4 9 4 C9 4.66 9 5.32 9 6 C1.96517526 6.23668569 -4.1834265 5.7879537 -11 4 C-11 3.01 -11 2.02 -11 1 C-7.32589215 -0.17571451 -3.83070817 -0.07366746 0 0 Z "
     fill="#424347"
     transform="translate(54,135)"
     id="path50" />
  <path
     d="M0 0 C4.50097672 3.54884703 5.39126779 7.6179352 6.75 12.9375 C6.97042969 13.73607422 7.19085938 14.53464844 7.41796875 15.35742188 C8.47290182 19.31178278 9.30033145 22.87044249 9 27 C4.49441434 18.3354122 2.02305298 9.49113152 0 0 Z "
     fill="#09455C"
     transform="translate(139,42)"
     id="path51" />
  <path
     d="M0 0 C0.66 2.97 1.32 5.94 2 9 C2.66 9 3.32 9 4 9 C4.33 11.97 4.66 14.94 5 18 C3 15 3 15 2.0625 12.5625 C1.00102895 10.00248158 -0.33630094 8.19305785 -2 6 C-2 5.34 -2 4.68 -2 4 C-2.99 3.67 -3.98 3.34 -5 3 C-5 2.34 -5 1.68 -5 1 C-2 0 -2 0 0 0 Z "
     fill="#05202D"
     transform="translate(135,16)"
     id="path52" />
  <path
     d="M0 0 C0 1.32 0 2.64 0 4 C-3.96 4 -7.92 4 -12 4 C-12 3.01 -12 2.02 -12 1 C-7.95858806 0.36605303 -4.0934693 -0.12404452 0 0 Z "
     fill="#ADC1CD"
     transform="translate(137,121)"
     id="path53" />
  <path
     d="M0 0 C-0.99 0.66 -1.98 1.32 -3 2 C-3 2.66 -3 3.32 -3 4 C-2.34 4.66 -1.68 5.32 -1 6 C-2.918125 5.8453125 -2.918125 5.8453125 -4.875 5.6875 C-5.95394531 5.60048828 -5.95394531 5.60048828 -7.0546875 5.51171875 C-9 5 -9 5 -11 2 C-3.57142857 -1.57142857 -3.57142857 -1.57142857 0 0 Z "
     fill="#8D9396"
     transform="translate(30,137)"
     id="path54" />
  <path
     d="M0 0 C0.33 0 0.66 0 1 0 C0.72694671 6.55327899 -1.81211141 10.06930548 -6 15 C-6.6796875 13.32421875 -6.6796875 13.32421875 -7 11 C-5.8203125 8.45703125 -5.8203125 8.45703125 -4.125 5.8125 C-3.57070312 4.93207031 -3.01640625 4.05164063 -2.4453125 3.14453125 C-1 1 -1 1 0 0 Z "
     fill="#666C6C"
     transform="translate(14,72)"
     id="path55" />
  <path
     d="M0 0 C1.62490954 -0.02698189 3.24994633 -0.04638757 4.875 -0.0625 C5.77992187 -0.07410156 6.68484375 -0.08570313 7.6171875 -0.09765625 C10 0 10 0 12 1 C14.37123246 1.23029956 16.74741943 1.41119942 19.125 1.5625 C20.40632813 1.64628906 21.68765625 1.73007813 23.0078125 1.81640625 C24.48894531 1.90728516 24.48894531 1.90728516 26 2 C26 2.33 26 2.66 26 3 C8.14350797 3.18451025 8.14350797 3.18451025 0 2 C0 1.34 0 0.68 0 0 Z "
     fill="#4E5255"
     transform="translate(40,139)"
     id="path56" />
  <path
     d="M0 0 C0.99 0.495 0.99 0.495 2 1 C2 2.32 2 3.64 2 5 C3.32 5 4.64 5 6 5 C5.03644647 16.52164009 5.03644647 16.52164009 4 22 C3.67 22 3.34 22 3 22 C3.03480469 21.2265625 3.06960937 20.453125 3.10546875 19.65625 C3.28043537 12.92420113 2.73114006 8.14506513 0 2 C0 1.34 0 0.68 0 0 Z "
     fill="#23596E"
     transform="translate(145,64)"
     id="path57" />
  <path
     d="M0 0 C0.33 0 0.66 0 1 0 C0.45298368 7.44230094 -0.54198409 14.68160944 -2 22 C-3.32 22 -4.64 22 -6 22 C-6 21.34 -6 20.68 -6 20 C-5.01 20 -4.02 20 -3 20 C-2.95101562 19.39414063 -2.90203125 18.78828125 -2.8515625 18.1640625 C-2.3017522 12.00239536 -1.32390951 6.04114049 0 0 Z "
     fill="#305461"
     transform="translate(143,106)"
     id="path58" />
  <path
     d="M0 0 C0 0.66 0 1.32 0 2 C-2.24973447 2.054138 -4.49984383 2.09285491 -6.75 2.125 C-8.00296875 2.14820313 -9.2559375 2.17140625 -10.546875 2.1953125 C-13.72820492 2.01537302 -15.36521896 1.68998582 -18 0 C-11.84098757 -1.23180249 -6.21324498 -0.73030908 0 0 Z "
     fill="#494949"
     transform="translate(81,137)"
     id="path59" />
  <path
     d="M0 0 C3.96 0 7.92 0 12 0 C12 0.99 12 1.98 12 3 C10.37509046 3.02698189 8.75005367 3.04638757 7.125 3.0625 C5.76761719 3.07990234 5.76761719 3.07990234 4.3828125 3.09765625 C2 3 2 3 0 2 C0 1.34 0 0.68 0 0 Z "
     fill="#0F1010"
     transform="translate(64,139)"
     id="path60" />
  <path
     d="M0 0 C2.64 0 5.28 0 8 0 C8 1.32 8 2.64 8 4 C4.7 4 1.4 4 -2 4 C-1.34 3.67 -0.68 3.34 0 3 C0 2.01 0 1.02 0 0 Z "
     fill="#4E6370"
     transform="translate(117,122)"
     id="path61" />
  <path
     d="M0 0 C4.99768886 4.99768886 5.83067383 13.28669213 7 20 C6.34 20 5.68 20 5 20 C4.15960114 17.41877492 3.32749444 14.83536099 2.5 12.25 C2.26152344 11.52039062 2.02304688 10.79078125 1.77734375 10.0390625 C1.55175781 9.33007812 1.32617188 8.62109375 1.09375 7.890625 C0.88427734 7.24125977 0.67480469 6.59189453 0.45898438 5.92285156 C0 4 0 4 0 0 Z "
     fill="#135E79"
     transform="translate(138,42)"
     id="path62" />
  <path
     d="M0 0 C2.12046792 3.53411321 2.53199289 6.94393835 3 11 C2.01 11.33 1.02 11.66 0 12 C-0.33 12.99 -0.66 13.98 -1 15 C-1.18451025 4.44191344 -1.18451025 4.44191344 0 0 Z "
     fill="#7A7976"
     transform="translate(140,13)"
     id="path63" />
  <path
     d="M0 0 C1.60332791 -0.08121924 3.20784026 -0.13929134 4.8125 -0.1875 C6.15248047 -0.23970703 6.15248047 -0.23970703 7.51953125 -0.29296875 C10 0 10 0 13 3 C8.71 3 4.42 3 0 3 C0 2.01 0 1.02 0 0 Z "
     fill="#5D6467"
     transform="translate(120,134)"
     id="path64" />
  <path
     d="M0 0 C4.29 0 8.58 0 13 0 C13.33 3.3 13.66 6.6 14 10 C11 6 11 6 11 1 C7.37 1 3.74 1 0 1 C0 0.67 0 0.34 0 0 Z "
     fill="#0C1721"
     transform="translate(124,15)"
     id="path65" />
  <path
     d="M0 0 C0.66 0 1.32 0 2 0 C1.34 4.95 0.68 9.9 0 15 C-0.99 15 -1.98 15 -3 15 C-2.01 10.05 -1.02 5.1 0 0 Z "
     fill="#BFD0D8"
     transform="translate(146,116)"
     id="path66" />
  <path
     d="M0 0 C1.9375 0.375 1.9375 0.375 4 1 C4.33 1.66 4.66 2.32 5 3 C7.3140622 3.73075648 9.64828869 4.40138258 12 5 C12 5.33 12 5.66 12 6 C8.7 5.67 5.4 5.34 2 5 C2 4.34 2 3.68 2 3 C1.34 3 0.68 3 0 3 C0 2.01 0 1.02 0 0 Z "
     fill="#B6BCBE"
     transform="translate(16,138)"
     id="path67" />
  <path
     d="M0 0 C0.99 0.495 0.99 0.495 2 1 C2 1.99 2 2.98 2 4 C2.66 4 3.32 4 4 4 C4 6.64 4 9.28 4 12 C4.66 12 5.32 12 6 12 C5.67 13.32 5.34 14.64 5 16 C2.79334596 12.69001895 2.21737905 10.17978564 1.375 6.3125 C1.11460937 5.13300781 0.85421875 3.95351563 0.5859375 2.73828125 C0.39257812 1.83464844 0.19921875 0.93101563 0 0 Z "
     fill="#7E8080"
     transform="translate(146,53)"
     id="path68" />
  <path
     d="M0 0 C-0.33 3.96 -0.66 7.92 -1 12 C-1.33 12 -1.66 12 -2 12 C-2.33 8.7 -2.66 5.4 -3 2 C-4.32 1.67 -5.64 1.34 -7 1 C-2.25 0 -2.25 0 0 0 Z "
     fill="#494846"
     transform="translate(140,13)"
     id="path69" />
  <path
     d="M0 0 C0.33 0 0.66 0 1 0 C2.13764351 4.26616316 3 7.56486311 3 12 C2.34 12 1.68 12 1 12 C-1.32488647 8.36736489 -1.23961213 5.23314767 -1 1 C-0.67 0.67 -0.34 0.34 0 0 Z "
     fill="#949291"
     transform="translate(147,45)"
     id="path70" />
  <path
     d="M0 0 C0.33 0.66 0.66 1.32 1 2 C1.99 2.33 2.98 2.66 4 3 C4 3.66 4 4.32 4 5 C1.36 5 -1.28 5 -4 5 C-2.25 1.125 -2.25 1.125 0 0 Z "
     fill="#8B8F94"
     transform="translate(139,135)"
     id="path71" />
  <path
     d="M0 0 C2.0343459 1.41519715 2.90410393 2.54982123 3.421875 4.98046875 C3.66273952 6.98176954 3.83532741 8.9909944 4 11 C3.01 10.67 2.02 10.34 1 10 C1.33 9.01 1.66 8.02 2 7 C1.34 7 0.68 7 0 7 C0 4.69 0 2.38 0 0 Z "
     fill="#91A6AE"
     transform="translate(150,58)"
     id="path72" />
  <path
     d="M0 0 C1.984375 1.23828125 1.984375 1.23828125 4 3 C4.52799676 5.76142303 4.18598981 8.16365545 4 11 C3.34 10.67 2.68 10.34 2 10 C1.3671875 7.71484375 1.3671875 7.71484375 0.875 4.9375 C0.70742187 4.01839844 0.53984375 3.09929688 0.3671875 2.15234375 C0.24601563 1.44207031 0.12484375 0.73179688 0 0 Z "
     fill="#013249"
     transform="translate(134,24)"
     id="path73" />
  <path
     d="M0 0 C3.125 -0.1875 3.125 -0.1875 6 0 C6.33 0.99 6.66 1.98 7 3 C4.03 3 1.06 3 -2 3 C-1.34 2.01 -0.68 1.02 0 0 Z "
     fill="#707271"
     transform="translate(88,134)"
     id="path74" />
  <path
     d="M0 0 C0.33 0.66 0.66 1.32 1 2 C1.99 2.33 2.98 2.66 4 3 C2.68 5.31 1.36 7.62 0 10 C-1.2380014 6.42355152 -0.74926071 3.66305234 0 0 Z "
     fill="#AFBBBE"
     transform="translate(8,73)"
     id="path75" />
  <path
     d="M0 0 C0.33 0.99 0.66 1.98 1 3 C1.99 2.67 2.98 2.34 4 2 C4.33 2.66 4.66 3.32 5 4 C4.01 4 3.02 4 2 4 C1.34 5.98 0.68 7.96 0 10 C-0.33 10 -0.66 10 -1 10 C-0.67 6.7 -0.34 3.4 0 0 Z "
     fill="#184457"
     transform="translate(26,19)"
     id="path76" />
  <path
     d="M0 0 C0.66 0.33 1.32 0.66 2 1 C1 4 1 4 -1.0625 5.1875 C-1.701875 5.455625 -2.34125 5.72375 -3 6 C-2 4 -1 2 0 0 Z M-5 8 C-4.67 9.32 -4.34 10.64 -4 12 C-4.99 11.67 -5.98 11.34 -7 11 C-6.34 10.01 -5.68 9.02 -5 8 Z "
     fill="#8B8D8D"
     transform="translate(14,77)"
     id="path77" />
  <path
     d="M0 0 C2.64 0 5.28 0 8 0 C7.67 0.66 7.34 1.32 7 2 C3.9375 2.625 3.9375 2.625 1 3 C0.67 2.01 0.34 1.02 0 0 Z "
     fill="#525151"
     transform="translate(94,134)"
     id="path78" />
  <path
     d="M0 0 C0.66 0 1.32 0 2 0 C1.67 2.64 1.34 5.28 1 8 C0.67 6.68 0.34 5.36 0 4 C-0.66 4 -1.32 4 -2 4 C-1.34 2.68 -0.68 1.36 0 0 Z "
     fill="#C3D0D6"
     transform="translate(20,36)"
     id="path79" />
  <path
     d="M0 0 C1.65 0 3.3 0 5 0 C4.67 1.32 4.34 2.64 4 4 C2.35 4 0.7 4 -1 4 C-0.34 3.67 0.32 3.34 1 3 C0.67 2.01 0.34 1.02 0 0 Z "
     fill="#CCD0D4"
     transform="translate(146,137)"
     id="path80" />
  <path
     d="M0 0 C1.98 0 3.96 0 6 0 C5.67 0.99 5.34 1.98 5 3 C3.35 3 1.7 3 0 3 C0 2.01 0 1.02 0 0 Z "
     fill="#A8A7A8"
     transform="translate(110,139)"
     id="path81" />
  <path
     d="M0 0 C0 0.99 0 1.98 0 3 C0.66 3.66 1.32 4.32 2 5 C0.35 5.33 -1.3 5.66 -3 6 C-3.33 4.68 -3.66 3.36 -4 2 C-2.68 1.34 -1.36 0.68 0 0 Z "
     fill="#545354"
     transform="translate(108,135)"
     id="path82" />
  <path
     d="M0 0 C2.99324263 1.0975223 3.84610901 1.67682892 5.25 4.625 C5.4975 5.40875 5.745 6.1925 6 7 C3 6 3 6 1.3125 2.9375 C0.879375 1.968125 0.44625 0.99875 0 0 Z "
     fill="#47707D"
     transform="translate(119,44)"
     id="path83" />
</svg>
